<?xml version="1.0" encoding="utf-8"?>
<!-- Generator: Adobe Illustrator 16.0.0, SVG Export Plug-In . SVG Version: 6.00 Build 0)  -->
<!DOCTYPE svg PUBLIC "-//W3C//DTD SVG 1.1//EN" "http://www.w3.org/Graphics/SVG/1.1/DTD/svg11.dtd">
<svg version="1.1" id="Layer_1" xmlns="http://www.w3.org/2000/svg" xmlns:xlink="http://www.w3.org/1999/xlink" x="0px" y="0px"
	 width="180.129px" height="24.629px" viewBox="0 0 180.129 24.629" enable-background="new 0 0 180.129 24.629"
	 xml:space="preserve">
<g>
	<rect x="96.814" y="0.003" width="7.876" height="5.038"/>
	<path d="M132.055,10.241c0.476,0.302,0.749,0.776,0.749,1.522h5.295c-0.174-3.955-3.222-5.316-6.534-5.606v3.853
		C131.741,10.071,131.912,10.15,132.055,10.241"/>
	<path d="M75.604,20.234c-2.633,0-3.508-2.663-3.508-5.063c0-2.23,0.875-4.696,3.508-4.696c0.141,0,0.267,0.038,0.403,0.048V6.438
		c-0.68-0.234-1.435-0.35-2.262-0.35c-4.583,0-7.003,3.685-7.354,7.839v-1.051c0-2.529-0.466-6.788-6.307-6.788
		c-0.883,0-1.766,0.205-2.589,0.564v4.19c0.091-0.007,0.187-0.027,0.293-0.027c3.143,0,2.865,2.433,2.865,4.827v8.481h5.738v-8.014
		c0.346,4.493,2.722,8.518,7.794,8.518c0.674,0,1.272-0.104,1.821-0.292V20.22C75.875,20.228,75.745,20.234,75.604,20.234"/>
	<path d="M113.201,19.9c-1.827,0-2.841-0.806-2.841-3.146V6.597h-5.739v10.535c0,4.59,1.45,7.497,6.484,7.497
		c0.82,0,1.654-0.193,2.426-0.533v-4.218C113.42,19.881,113.295,19.9,113.201,19.9"/>
	<polygon points="54.664,8.991 54.664,6.597 48.938,6.597 48.938,24.125 54.677,24.125 54.677,14.563 54.677,8.991 	"/>
	<polygon points="94.002,5.041 94.002,0.004 87.719,0.004 87.719,24.124 94.002,24.124 94.002,14.833 94.002,9.972 	"/>
	<path d="M78.809,0.764v7.722v4.954c0.145,0.598,0.208,1.239,0.208,1.902c0,0.657-0.055,1.353-0.208,2.011v4.74h0.013v2.031h5.735
		V0.004h-5.748V0.764z"/>
	<path d="M47.987,11.965c0-3.875-2.45-5.273-5.497-5.703v5.199c0.005,0.058,0.023,0.106,0.023,0.168
		c0,0.135-0.006,0.253-0.023,0.366v10.525c0.02-0.019,0.038-0.039,0.059-0.055c0.068,0.579,0.135,1.116,0.338,1.659h5.775
		c-0.675-1.385-0.675-3.008-0.675-4.493V11.965z"/>
	<path d="M38.933,21.083c-1.277,0-2.398-0.579-2.398-1.987c0-1.388,1.084-1.935,2.366-2.231c0.251-0.067,0.517-0.13,0.777-0.183
		v-3.215c-3.901,0.563-8.883,0.746-8.883,5.855c0,3.615,2.63,5.307,5.975,5.307c0.979,0,1.966-0.136,2.908-0.438v-3.169
		C39.437,21.056,39.206,21.083,38.933,21.083"/>
	<path d="M34.238,7.304c-0.381,0.22-0.727,0.481-1.048,0.772V6.389c-0.439-0.099-0.911-0.133-1.347-0.133
		c-0.922,0-1.777,0.166-2.526,0.491v4.82c0.514-0.177,1.079-0.28,1.678-0.28h6.099c0.424-0.98,1.314-1.461,2.583-1.475V6.092
		C37.727,6.103,35.759,6.447,34.238,7.304"/>
	<path d="M26.504,6.597h-5.576v9.455c-0.203-2.469-1.727-4.446-4.103-5.136c1.885-0.945,3.168-2.703,3.168-4.867
		c0-5.03-4.55-6.11-8.716-6.045H9.098v4.867h2.043c1.324,0,2.574,0.576,2.574,2.328c0,1.724-1.485,2.303-2.574,2.303H9.098v4.05
		h2.215c1.891,0,3.379,0.709,3.379,2.833c0,1.998-1.378,2.71-3.379,2.71H9.098v5.03h2.486c4.891,0,8.926-1.577,9.344-6.61v6.61
		h5.576V15.44v-5.77V6.597z"/>
	<polygon points="6.286,13.553 6.286,9.501 6.286,4.87 6.286,0.003 0,0.003 0,24.124 6.286,24.124 6.286,19.096 	"/>
	<rect x="96.814" y="9.971" width="6.126" height="4.862"/>
	<path d="M128.143,20.306c-0.578-0.438-0.955-1.084-0.955-1.96h-5.108v-6.032c0.453,3.36,3.635,3.922,6.673,4.566v-4.546
		c-0.6-0.308-0.986-0.696-0.986-1.215c0-0.65,0.438-0.978,0.986-1.148V6.14c-2.965,0.245-6.213,1.412-6.673,4.543V6.597h-5.735
		v9.387v5.738v2.403h5.735v-3.778c0.956,2.798,3.703,3.934,6.673,4.203v-3.912C128.534,20.546,128.318,20.443,128.143,20.306"/>
	<path d="M173.809,6.089c-0.876,0-1.772,0.205-2.589,0.563v4.191c0.101-0.007,0.187-0.027,0.29-0.027
		c3.145,0,2.873,2.433,2.873,4.826v8.482h5.747V12.877C180.129,10.348,179.653,6.089,173.809,6.089"/>
	<path d="M168.414,6.597h-5.752v7.46c-0.522-4.151-3.5-7.278-7.722-7.861v4.608c1.545,0.777,2.078,2.809,2.078,4.574
		c0,1.758-0.533,3.775-2.078,4.54v4.604c4.222-0.579,7.2-3.686,7.722-7.824v7.427h5.752v-9.562V8.991V6.597z"/>
	<path d="M150.026,15.378c0-1.79,0.523-3.859,2.1-4.605V6.184c-4.284,0.569-7.294,3.769-7.77,7.995V6.597h-5.745v10.954
		c-0.297-1.447-1.427-3.314-4.359-3.902c-0.824-0.178-1.774-0.331-2.687-0.508v4.417c0.745,0.262,1.397,0.68,1.397,1.498
		c0,0.882-0.64,1.388-1.397,1.648v3.863c3.263-0.276,6.501-1.705,7.046-5.135v4.692h5.745v-7.557
		c0.476,4.226,3.486,7.403,7.77,7.967v-4.584C150.549,19.201,150.026,17.157,150.026,15.378"/>
	<rect x="138.612" y="0.003" width="5.744" height="4.395"/>
	<path fill="#FF3907" d="M26.575,9.667h-0.071v5.771c0-1.876,1.146-3.303,2.814-3.874V6.745C28.062,7.286,27.1,8.267,26.575,9.667"
		/>
	<path fill="#FF3907" d="M39.812,6.087c-0.044,0-0.089,0.002-0.134,0.002v3.717c0.028,0,0.045-0.007,0.06-0.007
		c1.136,0,2.617,0.468,2.753,1.658v-5.2C41.625,6.135,40.726,6.087,39.812,6.087"/>
	<path fill="#FF3907" d="M40.992,13.244c-0.416,0.086-0.855,0.148-1.315,0.219v3.215c1.041-0.215,2.121-0.359,2.771-0.769
		c0.115,3.263-0.625,4.832-2.771,5.113v3.165c1.056-0.331,2.024-0.868,2.813-1.671V11.993
		C42.374,12.786,41.848,13.065,40.992,13.244"/>
	<rect x="6.286" fill="#FF3907" width="2.812" height="4.866"/>
	<rect x="6.286" y="19.091" fill="#FF3907" width="2.812" height="5.03"/>
	<rect x="6.286" y="9.497" fill="#FF3907" width="2.812" height="4.052"/>
	<rect x="94.003" y="9.97" fill="#FF3907" width="2.812" height="4.862"/>
	<rect x="94.001" fill="#FF3907" width="2.813" height="5.038"/>
	<path fill="#FF3907" d="M113.531,19.871v4.221c1.116-0.499,2.101-1.308,2.739-2.37h0.075V15.98
		C116.345,18.825,114.755,19.735,113.531,19.871"/>
	<path fill="#FF3907" d="M168.472,8.989h-0.057v5.575c0-1.834,0.863-3.555,2.805-3.726V6.653
		C170.082,7.146,169.08,7.944,168.472,8.989"/>
	<path fill="#FF3907" d="M153.502,10.474c0.561,0,1.03,0.124,1.438,0.33V6.19c-0.463-0.065-0.943-0.104-1.438-0.104
		c-0.481,0-0.926,0.037-1.376,0.097v4.586C152.521,10.581,152.97,10.474,153.502,10.474"/>
	<path fill="#FF3907" d="M153.502,20.234c-0.532,0-0.982-0.102-1.376-0.288v4.584c0.45,0.059,0.895,0.095,1.376,0.095
		c0.495,0,0.975-0.04,1.438-0.107v-4.605C154.533,20.116,154.063,20.234,153.502,20.234"/>
	<rect x="138.612" y="4.395" fill="#FF3907" width="5.744" height="2.197"/>
	<path fill="#FF3907" d="M54.735,8.989h-0.057v5.575c0-1.834,0.869-3.555,2.818-3.726V6.653C56.35,7.146,55.342,7.944,54.735,8.989"
		/>
	<path fill="#FF3907" d="M78.809,13.436V8.482h-0.063c-0.733-0.983-1.644-1.667-2.74-2.048v4.087
		C77.58,10.695,78.454,11.88,78.809,13.436"/>
	<path fill="#FF3907" d="M76.006,20.215v4.121c1.107-0.384,1.992-1.135,2.749-2.248h0.054v-4.739
		C78.491,18.805,77.696,20.046,76.006,20.215"/>
	<path fill="#FF3907" d="M130.23,9.799c0.492,0,0.947,0.07,1.335,0.209V6.15c-0.511-0.048-1.028-0.063-1.538-0.063
		c-0.412,0-0.841,0.016-1.274,0.049v3.836C129.236,9.826,129.793,9.799,130.23,9.799"/>
	<path fill="#FF3907" d="M130.263,20.915c-0.537,0-1.055-0.104-1.51-0.282v3.917c0.514,0.055,1.03,0.075,1.544,0.075
		c0.419,0,0.846-0.021,1.268-0.057V20.7C131.133,20.849,130.674,20.915,130.263,20.915"/>
	<path fill="#FF3907" d="M130.162,17.19c0.4,0.1,0.918,0.198,1.403,0.367v-4.417c-1.076-0.213-2.1-0.455-2.812-0.811v4.547
		C129.235,16.975,129.707,17.08,130.162,17.19"/>
</g>
</svg>
