<?xml version="1.0" encoding="utf-8"?>
<!-- Generator: Adobe Illustrator 16.0.0, SVG Export Plug-In . SVG Version: 6.00 Build 0)  -->
<!DOCTYPE svg PUBLIC "-//W3C//DTD SVG 1.1//EN" "http://www.w3.org/Graphics/SVG/1.1/DTD/svg11.dtd">
<svg version="1.1" id="Layer_1" xmlns="http://www.w3.org/2000/svg" xmlns:xlink="http://www.w3.org/1999/xlink" x="0px" y="0px"
	 width="1183.954px" height="473.137px" viewBox="0 0 1183.954 473.137" enable-background="new 0 0 1183.954 473.137"
	 xml:space="preserve">
<g>
	<rect x="19.426" y="78.855" fill="#F4F4F4" width="39.424" height="39.424"/>
	<rect x="98.458" y="78.855" fill="#F4F4F4" width="39.424" height="39.424"/>
	<rect x="177.305" y="78.855" fill="#F4F4F4" width="39.424" height="39.424"/>
	<rect x="256.153" y="78.855" fill="#F4F4F4" width="39.424" height="39.424"/>
	<rect x="335" y="78.855" fill="#F4F4F4" width="39.424" height="39.424"/>
	<rect x="414.032" y="78.855" fill="#F4F4F4" width="39.424" height="39.424"/>
	<rect x="492.879" y="78.855" fill="#F4F4F4" width="39.424" height="39.424"/>
	<rect x="571.727" y="78.855" fill="#F4F4F4" width="39.425" height="39.424"/>
	<rect x="650.574" y="78.855" fill="#F4F4F4" width="39.424" height="39.424"/>
	<rect x="729.605" y="78.855" fill="#F4F4F4" width="39.425" height="39.424"/>
	<rect x="808.454" y="78.855" fill="#F4F4F4" width="39.424" height="39.424"/>
	<rect x="887.301" y="78.855" fill="#F4F4F4" width="39.424" height="39.424"/>
	<rect x="966.653" y="78.855" fill="#F4F4F4" width="39.424" height="39.424"/>
	<rect x="1045.686" y="78.855" fill="#F4F4F4" width="39.425" height="39.424"/>
	<rect x="1124.532" y="78.855" fill="#F4F4F4" width="39.424" height="39.424"/>
	<rect x="19.426" y="157.712" fill="#F4F4F4" width="39.424" height="39.424"/>
	<rect x="98.458" y="157.712" fill="#F4F4F4" width="39.424" height="39.424"/>
	<rect x="177.305" y="157.712" fill="#F4F4F4" width="39.424" height="39.424"/>
	<rect x="256.153" y="157.712" fill="#F4F4F4" width="39.424" height="39.424"/>
	<rect x="335" y="157.712" fill="#F4F4F4" width="39.424" height="39.424"/>
	<rect x="414.032" y="157.712" fill="#F4F4F4" width="39.424" height="39.424"/>
	<rect x="492.879" y="157.712" fill="#F4F4F4" width="39.424" height="39.424"/>
	<rect x="571.727" y="157.712" fill="#F4F4F4" width="39.425" height="39.424"/>
	<rect x="650.574" y="157.712" fill="#F4F4F4" width="39.424" height="39.424"/>
	<rect x="729.605" y="157.712" fill="#F4F4F4" width="39.425" height="39.424"/>
	<rect x="808.454" y="157.712" fill="#F4F4F4" width="39.424" height="39.424"/>
	<rect x="887.301" y="157.712" fill="#F4F4F4" width="39.424" height="39.424"/>
	<rect x="966.653" y="157.712" fill="#F4F4F4" width="39.424" height="39.424"/>
	<rect x="1045.686" y="157.712" fill="#F4F4F4" width="39.425" height="39.424"/>
	<rect x="1124.532" y="157.712" fill="#F4F4F4" width="39.424" height="39.424"/>
	<rect x="19.426" y="236.568" fill="#F4F4F4" width="39.424" height="39.425"/>
	<rect x="98.458" y="236.568" fill="#F4F4F4" width="39.424" height="39.425"/>
	<rect x="177.305" y="236.568" fill="#F4F4F4" width="39.424" height="39.425"/>
	<rect x="256.153" y="236.568" fill="#F4F4F4" width="39.424" height="39.425"/>
	<rect x="335" y="236.568" fill="#F4F4F4" width="39.424" height="39.425"/>
	<rect x="414.032" y="236.568" fill="#F4F4F4" width="39.424" height="39.425"/>
	<rect x="492.879" y="236.568" fill="#F4F4F4" width="39.424" height="39.425"/>
	<rect x="571.727" y="236.568" fill="#F4F4F4" width="39.425" height="39.425"/>
	<rect x="650.574" y="236.568" fill="#F4F4F4" width="39.424" height="39.425"/>
	<rect x="729.605" y="236.568" fill="#F4F4F4" width="39.425" height="39.425"/>
	<rect x="808.454" y="236.568" fill="#F4F4F4" width="39.424" height="39.425"/>
	<rect x="887.301" y="236.568" fill="#F4F4F4" width="39.424" height="39.425"/>
	<rect x="966.653" y="236.568" fill="#F4F4F4" width="39.424" height="39.425"/>
	<rect x="1045.686" y="236.568" fill="#F4F4F4" width="39.425" height="39.425"/>
	<rect x="1124.532" y="236.568" fill="#F4F4F4" width="39.424" height="39.425"/>
	<rect x="19.426" y="315.424" fill="#F4F4F4" width="39.424" height="39.424"/>
	<rect x="98.458" y="315.424" fill="#F4F4F4" width="39.424" height="39.424"/>
	<rect x="177.305" y="315.424" fill="#F4F4F4" width="39.424" height="39.424"/>
	<rect x="256.153" y="315.424" fill="#F4F4F4" width="39.424" height="39.424"/>
	<rect x="335" y="315.424" fill="#F4F4F4" width="39.424" height="39.424"/>
	<rect x="414.032" y="315.424" fill="#F4F4F4" width="39.424" height="39.424"/>
	<rect x="492.879" y="315.424" fill="#F4F4F4" width="39.424" height="39.424"/>
	<rect x="571.727" y="315.424" fill="#F4F4F4" width="39.425" height="39.424"/>
	<rect x="650.574" y="315.424" fill="#F4F4F4" width="39.424" height="39.424"/>
	<rect x="729.605" y="315.424" fill="#F4F4F4" width="39.425" height="39.424"/>
	<rect x="808.454" y="315.424" fill="#F4F4F4" width="39.424" height="39.424"/>
	<rect x="887.301" y="315.424" fill="#F4F4F4" width="39.424" height="39.424"/>
	<rect x="966.653" y="315.424" fill="#F4F4F4" width="39.424" height="39.424"/>
	<rect x="1045.686" y="315.424" fill="#F4F4F4" width="39.425" height="39.424"/>
	<rect x="1124.532" y="315.424" fill="#F4F4F4" width="39.424" height="39.424"/>
	<rect x="19.426" y="394.28" fill="#F4F4F4" width="39.424" height="39.423"/>
	<rect x="98.458" y="394.28" fill="#F4F4F4" width="39.424" height="39.423"/>
	<rect x="177.305" y="394.28" fill="#F4F4F4" width="39.424" height="39.423"/>
	<rect x="256.153" y="394.28" fill="#F4F4F4" width="39.424" height="39.423"/>
	<rect x="335" y="394.28" fill="#F4F4F4" width="39.424" height="39.423"/>
	<rect x="414.032" y="394.28" fill="#F4F4F4" width="39.424" height="39.423"/>
	<rect x="492.879" y="394.28" fill="#F4F4F4" width="39.424" height="39.423"/>
	<rect x="571.727" y="394.28" fill="#F4F4F4" width="39.425" height="39.423"/>
	<rect x="650.574" y="394.28" fill="#F4F4F4" width="39.424" height="39.423"/>
	<rect x="729.605" y="394.28" fill="#F4F4F4" width="39.425" height="39.423"/>
	<rect x="808.454" y="394.28" fill="#F4F4F4" width="39.424" height="39.423"/>
	<rect x="887.301" y="394.28" fill="#F4F4F4" width="39.424" height="39.423"/>
	<rect x="966.653" y="394.28" fill="#F4F4F4" width="39.424" height="39.423"/>
	<rect x="1045.686" y="394.28" fill="#F4F4F4" width="39.425" height="39.423"/>
	<rect x="1124.532" y="394.28" fill="#F4F4F4" width="39.424" height="39.423"/>
	<rect x="-20" y="39.432" fill="#F4F4F4" width="39.424" height="39.424"/>
	<rect x="58.848" y="39.432" fill="#F4F4F4" width="39.424" height="39.424"/>
	<rect x="137.88" y="39.432" fill="#F4F4F4" width="39.424" height="39.424"/>
	<rect x="216.727" y="39.432" fill="#F4F4F4" width="39.424" height="39.424"/>
	<rect x="295.575" y="39.432" fill="#F4F4F4" width="39.424" height="39.424"/>
	<rect x="374.422" y="39.432" fill="#F4F4F4" width="39.424" height="39.424"/>
	<rect x="453.454" y="39.432" fill="#F4F4F4" width="39.424" height="39.424"/>
	<rect x="532.301" y="39.432" fill="#F4F4F4" width="39.424" height="39.424"/>
	<rect x="611.148" y="39.432" fill="#F4F4F4" width="39.425" height="39.424"/>
	<rect x="689.996" y="39.432" fill="#F4F4F4" width="39.424" height="39.424"/>
	<rect x="769.028" y="39.432" fill="#F4F4F4" width="39.424" height="39.424"/>
	<rect x="847.875" y="39.432" fill="#F4F4F4" width="39.424" height="39.424"/>
	<rect x="926.723" y="39.432" fill="#F4F4F4" width="39.424" height="39.424"/>
	<rect x="1006.075" y="39.432" fill="#F4F4F4" width="39.424" height="39.424"/>
	<rect x="1085.107" y="39.432" fill="#F4F4F4" width="39.424" height="39.424"/>
	<rect x="1163.954" y="39.432" fill="#F4F4F4" width="39.424" height="39.424"/>
	<rect x="19.426" fill="#F4F4F4" width="39.424" height="39.424"/>
	<rect x="98.459" fill="#F4F4F4" width="39.424" height="39.424"/>
	<rect x="177.306" fill="#F4F4F4" width="39.424" height="39.424"/>
	<rect x="256.153" fill="#F4F4F4" width="39.424" height="39.424"/>
	<rect x="335" fill="#F4F4F4" width="39.424" height="39.424"/>
	<rect x="414.032" fill="#F4F4F4" width="39.424" height="39.424"/>
	<rect x="492.879" fill="#F4F4F4" width="39.424" height="39.424"/>
	<rect x="571.729" fill="#F4F4F4" width="39.424" height="39.424"/>
	<rect x="650.575" fill="#F4F4F4" width="39.424" height="39.424"/>
	<rect x="729.605" fill="#F4F4F4" width="39.425" height="39.424"/>
	<rect x="808.454" fill="#F4F4F4" width="39.424" height="39.424"/>
	<rect x="887.301" fill="#F4F4F4" width="39.424" height="39.424"/>
	<rect x="966.653" fill="#F4F4F4" width="39.424" height="39.424"/>
	<rect x="1045.686" fill="#F4F4F4" width="39.425" height="39.424"/>
	<rect x="1124.533" fill="#F4F4F4" width="39.424" height="39.424"/>
	<rect x="-20" y="118.288" fill="#F4F4F4" width="39.424" height="39.424"/>
	<rect x="58.848" y="118.288" fill="#F4F4F4" width="39.424" height="39.424"/>
	<rect x="137.88" y="118.288" fill="#F4F4F4" width="39.424" height="39.424"/>
	<rect x="216.727" y="118.288" fill="#F4F4F4" width="39.424" height="39.424"/>
	<rect x="295.575" y="118.288" fill="#F4F4F4" width="39.424" height="39.424"/>
	<rect x="374.422" y="118.288" fill="#F4F4F4" width="39.424" height="39.424"/>
	<rect x="453.454" y="118.288" fill="#F4F4F4" width="39.424" height="39.424"/>
	<rect x="532.301" y="118.288" fill="#F4F4F4" width="39.424" height="39.424"/>
	<rect x="611.148" y="118.288" fill="#F4F4F4" width="39.425" height="39.424"/>
	<rect x="689.996" y="118.288" fill="#F4F4F4" width="39.424" height="39.424"/>
	<rect x="769.028" y="118.288" fill="#F4F4F4" width="39.424" height="39.424"/>
	<rect x="847.875" y="118.288" fill="#F4F4F4" width="39.424" height="39.424"/>
	<rect x="926.723" y="118.288" fill="#F4F4F4" width="39.424" height="39.424"/>
	<rect x="1006.075" y="118.288" fill="#F4F4F4" width="39.424" height="39.424"/>
	<rect x="1085.107" y="118.288" fill="#F4F4F4" width="39.424" height="39.424"/>
	<rect x="1163.954" y="118.288" fill="#F4F4F4" width="39.424" height="39.424"/>
	<rect x="-20" y="197.144" fill="#F4F4F4" width="39.424" height="39.424"/>
	<rect x="58.848" y="197.144" fill="#F4F4F4" width="39.424" height="39.424"/>
	<rect x="137.88" y="197.144" fill="#F4F4F4" width="39.424" height="39.424"/>
	<rect x="216.727" y="197.144" fill="#F4F4F4" width="39.424" height="39.424"/>
	<rect x="295.575" y="197.144" fill="#F4F4F4" width="39.424" height="39.424"/>
	<rect x="374.422" y="197.144" fill="#F4F4F4" width="39.424" height="39.424"/>
	<rect x="453.454" y="197.144" fill="#F4F4F4" width="39.424" height="39.424"/>
	<rect x="532.301" y="197.144" fill="#F4F4F4" width="39.424" height="39.424"/>
	<rect x="611.148" y="197.144" fill="#F4F4F4" width="39.425" height="39.424"/>
	<rect x="689.996" y="197.144" fill="#F4F4F4" width="39.424" height="39.424"/>
	<rect x="769.028" y="197.144" fill="#F4F4F4" width="39.424" height="39.424"/>
	<rect x="847.875" y="197.144" fill="#F4F4F4" width="39.424" height="39.424"/>
	<rect x="926.723" y="197.144" fill="#F4F4F4" width="39.424" height="39.424"/>
	<rect x="1006.075" y="197.144" fill="#F4F4F4" width="39.424" height="39.424"/>
	<rect x="1085.107" y="197.144" fill="#F4F4F4" width="39.424" height="39.424"/>
	<rect x="1163.954" y="197.144" fill="#F4F4F4" width="39.424" height="39.424"/>
	<rect x="-20" y="276" fill="#F4F4F4" width="39.424" height="39.425"/>
	<rect x="58.848" y="276" fill="#F4F4F4" width="39.424" height="39.425"/>
	<rect x="137.88" y="276" fill="#F4F4F4" width="39.424" height="39.425"/>
	<rect x="216.727" y="276" fill="#F4F4F4" width="39.424" height="39.425"/>
	<rect x="295.575" y="276" fill="#F4F4F4" width="39.424" height="39.425"/>
	<rect x="374.422" y="276" fill="#F4F4F4" width="39.424" height="39.425"/>
	<rect x="453.454" y="276" fill="#F4F4F4" width="39.424" height="39.425"/>
	<rect x="532.301" y="276" fill="#F4F4F4" width="39.424" height="39.425"/>
	<rect x="611.148" y="276" fill="#F4F4F4" width="39.425" height="39.425"/>
	<rect x="689.996" y="276" fill="#F4F4F4" width="39.424" height="39.425"/>
	<rect x="769.028" y="276" fill="#F4F4F4" width="39.424" height="39.425"/>
	<rect x="847.875" y="276" fill="#F4F4F4" width="39.424" height="39.425"/>
	<rect x="926.723" y="276" fill="#F4F4F4" width="39.424" height="39.425"/>
	<rect x="1006.075" y="276" fill="#F4F4F4" width="39.424" height="39.425"/>
	<rect x="1085.107" y="276" fill="#F4F4F4" width="39.424" height="39.425"/>
	<rect x="1163.954" y="276" fill="#F4F4F4" width="39.424" height="39.425"/>
	<rect x="-20" y="354.857" fill="#F4F4F4" width="39.424" height="39.425"/>
	<rect x="58.848" y="354.857" fill="#F4F4F4" width="39.424" height="39.425"/>
	<rect x="137.88" y="354.857" fill="#F4F4F4" width="39.424" height="39.425"/>
	<rect x="216.727" y="354.857" fill="#F4F4F4" width="39.424" height="39.425"/>
	<rect x="295.575" y="354.857" fill="#F4F4F4" width="39.424" height="39.425"/>
	<rect x="374.422" y="354.857" fill="#F4F4F4" width="39.424" height="39.425"/>
	<rect x="453.454" y="354.857" fill="#F4F4F4" width="39.424" height="39.425"/>
	<rect x="532.301" y="354.857" fill="#F4F4F4" width="39.424" height="39.425"/>
	<rect x="611.148" y="354.857" fill="#F4F4F4" width="39.425" height="39.425"/>
	<rect x="689.996" y="354.857" fill="#F4F4F4" width="39.424" height="39.425"/>
	<rect x="769.028" y="354.857" fill="#F4F4F4" width="39.424" height="39.425"/>
	<rect x="847.875" y="354.857" fill="#F4F4F4" width="39.424" height="39.425"/>
	<rect x="926.723" y="354.857" fill="#F4F4F4" width="39.424" height="39.425"/>
	<rect x="1006.075" y="354.857" fill="#F4F4F4" width="39.424" height="39.425"/>
	<rect x="1085.107" y="354.857" fill="#F4F4F4" width="39.424" height="39.425"/>
	<rect x="1163.954" y="354.857" fill="#F4F4F4" width="39.424" height="39.425"/>
	<rect x="-20" y="433.713" fill="#F4F4F4" width="39.424" height="39.424"/>
	<rect x="58.848" y="433.713" fill="#F4F4F4" width="39.424" height="39.424"/>
	<rect x="137.88" y="433.713" fill="#F4F4F4" width="39.424" height="39.424"/>
	<rect x="216.727" y="433.713" fill="#F4F4F4" width="39.424" height="39.424"/>
	<rect x="295.575" y="433.713" fill="#F4F4F4" width="39.424" height="39.424"/>
	<rect x="374.422" y="433.713" fill="#F4F4F4" width="39.424" height="39.424"/>
	<rect x="453.454" y="433.713" fill="#F4F4F4" width="39.424" height="39.424"/>
	<rect x="532.301" y="433.713" fill="#F4F4F4" width="39.424" height="39.424"/>
	<rect x="611.148" y="433.713" fill="#F4F4F4" width="39.425" height="39.424"/>
	<rect x="689.996" y="433.713" fill="#F4F4F4" width="39.424" height="39.424"/>
	<rect x="769.028" y="433.713" fill="#F4F4F4" width="39.424" height="39.424"/>
	<rect x="847.875" y="433.713" fill="#F4F4F4" width="39.424" height="39.424"/>
	<rect x="926.723" y="433.713" fill="#F4F4F4" width="39.424" height="39.424"/>
	<rect x="1006.075" y="433.713" fill="#F4F4F4" width="39.424" height="39.424"/>
	<rect x="1085.107" y="433.713" fill="#F4F4F4" width="39.424" height="39.424"/>
	<rect x="1163.954" y="433.713" fill="#F4F4F4" width="39.424" height="39.424"/>
</g>
</svg>
