<?xml version="1.0" encoding="utf-8"?>
<!-- Generator: Adobe Illustrator 16.0.0, SVG Export Plug-In . SVG Version: 6.00 Build 0)  -->
<!DOCTYPE svg PUBLIC "-//W3C//DTD SVG 1.1//EN" "http://www.w3.org/Graphics/SVG/1.1/DTD/svg11.dtd">
<svg version="1.1" id="Layer_1" xmlns="http://www.w3.org/2000/svg" xmlns:xlink="http://www.w3.org/1999/xlink" x="0px" y="0px"
	 width="41.288px" height="82.576px" viewBox="0 0 41.288 82.576" enable-background="new 0 0 41.288 82.576" xml:space="preserve">
<path fill="#FF3907" d="M41.288,41.288H0V0h41.288V41.288z M3,38.288h35.288V3H3V38.288z"/>
<path fill="#FF3907" d="M18.004,17.429h-2.195v3.928h2.195V32.89h4.22V21.308h2.944l0.313-3.879h-3.257V15.22
	c0-0.914,0.168-1.275,0.974-1.275h2.283V9.92H22.56c-3.14,0-4.556,1.515-4.556,4.417V17.429z"/>
<path fill="#04CB64" d="M41.288,82.576H0V41.288h41.288V82.576z M3,79.576h35.288V44.288H3V79.576z"/>
<path fill="#04CB64" d="M18.004,58.717h-2.195v3.928h2.195v11.533h4.22V62.596h2.944l0.313-3.879h-3.257v-2.209
	c0-0.914,0.168-1.275,0.974-1.275h2.283v-4.024H22.56c-3.14,0-4.556,1.515-4.556,4.417V58.717z"/>
</svg>
