<?xml version="1.0" encoding="utf-8"?>
<!-- Generator: Adobe Illustrator 16.0.0, SVG Export Plug-In . SVG Version: 6.00 Build 0)  -->
<!DOCTYPE svg PUBLIC "-//W3C//DTD SVG 1.1//EN" "http://www.w3.org/Graphics/SVG/1.1/DTD/svg11.dtd">
<svg version="1.1" id="Layer_1" xmlns="http://www.w3.org/2000/svg" xmlns:xlink="http://www.w3.org/1999/xlink" x="0px" y="0px"
	 width="41.288px" height="82.576px" viewBox="0 0 41.288 82.576" enable-background="new 0 0 41.288 82.576" xml:space="preserve">
<path fill="#FF3907" d="M41.288,41.289H0V0h41.288V41.289z M3,38.289h35.288V3H3V38.289z"/>
<path fill="#FF3907" d="M14.031,25.844c2.911,0,5.272-2.328,5.272-5.199s-2.361-5.201-5.272-5.201c-2.912,0-5.273,2.33-5.273,5.201
	S11.119,25.844,14.031,25.844"/>
<path fill="#FF3907" d="M27.259,15.443c-2.912,0-5.271,2.33-5.271,5.201s2.358,5.199,5.271,5.199s5.271-2.328,5.271-5.199
	S30.171,15.443,27.259,15.443"/>
<path fill="#04CB64" d="M41.288,82.578H0V41.289h41.288V82.578z M3,79.578h35.288V44.289H3V79.578z"/>
<path fill="#04CB64" d="M14.031,67.133c2.911,0,5.272-2.328,5.272-5.199s-2.361-5.201-5.272-5.201c-2.912,0-5.273,2.33-5.273,5.201
	S11.119,67.133,14.031,67.133"/>
<path fill="#04CB64" d="M27.259,56.732c-2.912,0-5.271,2.33-5.271,5.201s2.358,5.199,5.271,5.199s5.271-2.328,5.271-5.199
	S30.171,56.732,27.259,56.732"/>
</svg>
