<?xml version="1.0" encoding="utf-8"?>
<!-- Generator: Adobe Illustrator 16.0.0, SVG Export Plug-In . SVG Version: 6.00 Build 0)  -->
<!DOCTYPE svg PUBLIC "-//W3C//DTD SVG 1.1//EN" "http://www.w3.org/Graphics/SVG/1.1/DTD/svg11.dtd">
<svg version="1.1" id="Layer_1" xmlns="http://www.w3.org/2000/svg" xmlns:xlink="http://www.w3.org/1999/xlink" x="0px" y="0px"
	 width="41.288px" height="82.576px" viewBox="0 0 41.288 82.576" enable-background="new 0 0 41.288 82.576" xml:space="preserve">
<path fill="#FF3907" d="M41.288,41.289H0V0h41.288V41.289z M3,38.289h35.288V3H3V38.289z"/>
<path fill="#FF3907" d="M27.935,8.758H13.352c-2.534,0-4.595,2.061-4.595,4.594v4.854v9.731c0,2.533,2.061,4.595,4.595,4.595h14.583
	c2.533,0,4.595-2.062,4.595-4.595v-9.731v-4.854C32.529,10.818,30.468,8.758,27.935,8.758 M29.253,11.498l0.525-0.002v0.525v3.504
	l-4.015,0.014l-0.015-4.029L29.253,11.498z M17.251,18.205c0.762-1.055,1.996-1.744,3.393-1.744c1.396,0,2.631,0.689,3.393,1.744
	c0.495,0.688,0.792,1.529,0.792,2.438c0,2.306-1.879,4.185-4.185,4.185c-2.308,0-4.185-1.879-4.185-4.185
	C16.459,19.734,16.757,18.893,17.251,18.205 M30.214,27.937c0,1.257-1.022,2.278-2.279,2.278H13.352
	c-1.257,0-2.278-1.021-2.278-2.278v-9.731h3.548c-0.306,0.754-0.478,1.576-0.478,2.438c0,3.585,2.916,6.501,6.5,6.501
	c3.585,0,6.5-2.916,6.5-6.501c0-0.862-0.173-1.685-0.479-2.438h3.55V27.937z"/>
<path fill="#04CB64" d="M41.288,82.577H0V41.288h41.288V82.577z M3,79.577h35.288V44.288H3V79.577z"/>
<path fill="#04CB64" d="M27.935,50.046H13.352c-2.534,0-4.595,2.061-4.595,4.594v4.854v9.731c0,2.533,2.061,4.595,4.595,4.595
	h14.583c2.533,0,4.595-2.062,4.595-4.595v-9.731V54.64C32.529,52.106,30.468,50.046,27.935,50.046 M29.253,52.786l0.525-0.002v0.525
	v3.504l-4.015,0.014l-0.015-4.029L29.253,52.786z M17.251,59.493c0.762-1.055,1.996-1.744,3.393-1.744
	c1.396,0,2.631,0.689,3.393,1.744c0.495,0.688,0.792,1.529,0.792,2.438c0,2.306-1.879,4.185-4.185,4.185
	c-2.308,0-4.185-1.879-4.185-4.185C16.459,61.022,16.757,60.181,17.251,59.493 M30.214,69.225c0,1.257-1.022,2.278-2.279,2.278
	H13.352c-1.257,0-2.278-1.021-2.278-2.278v-9.731h3.548c-0.306,0.754-0.478,1.576-0.478,2.438c0,3.585,2.916,6.501,6.5,6.501
	c3.585,0,6.5-2.916,6.5-6.501c0-0.862-0.173-1.685-0.479-2.438h3.55V69.225z"/>
</svg>
