<?xml version="1.0" encoding="utf-8"?>
<!-- Generator: Adobe Illustrator 16.0.0, SVG Export Plug-In . SVG Version: 6.00 Build 0)  -->
<!DOCTYPE svg PUBLIC "-//W3C//DTD SVG 1.1//EN" "http://www.w3.org/Graphics/SVG/1.1/DTD/svg11.dtd">
<svg version="1.1" id="Layer_1" xmlns="http://www.w3.org/2000/svg" xmlns:xlink="http://www.w3.org/1999/xlink" x="0px" y="0px"
	 width="359px" height="82px" viewBox="18.833 17.167 359 82" enable-background="new 18.833 17.167 359 82" xml:space="preserve">
<rect x="128.052" y="73.014" width="7.876" height="5.038"/>
<path d="M163.293,83.251c0.476,0.301,0.749,0.776,0.749,1.522h5.295c-0.174-3.955-3.222-5.315-6.534-5.604v3.851
	C162.979,83.082,163.15,83.162,163.293,83.251"/>
<path d="M106.842,93.246c-2.633,0-3.509-2.664-3.509-5.064c0-2.229,0.876-4.695,3.509-4.695c0.141,0,0.267,0.039,0.403,0.05V79.45
	c-0.68-0.234-1.435-0.351-2.262-0.351c-4.583,0-7.003,3.687-7.353,7.84v-1.053c0-2.527-0.466-6.787-6.307-6.787
	c-0.883,0-1.766,0.205-2.589,0.564v4.189c0.091-0.006,0.187-0.025,0.293-0.025c3.143,0,2.865,2.432,2.865,4.826v8.479h5.738v-8.012
	c0.346,4.492,2.722,8.517,7.794,8.517c0.674,0,1.272-0.103,1.821-0.291V93.23C107.113,93.238,106.983,93.246,106.842,93.246"/>
<path d="M144.439,92.912c-1.827,0-2.841-0.807-2.841-3.148V79.607h-5.739v10.535c0,4.59,1.45,7.496,6.484,7.496
	c0.82,0,1.654-0.191,2.426-0.533v-4.217C144.658,92.891,144.533,92.912,144.439,92.912"/>
<polygon points="85.902,82.001 85.902,79.607 80.176,79.607 80.176,97.135 85.916,97.135 85.916,87.574 85.916,82.001 "/>
<polygon points="125.241,78.052 125.241,73.014 118.958,73.014 118.958,97.134 125.241,97.134 125.241,87.843 125.241,82.982 "/>
<path d="M110.047,73.773v7.723v4.955c0.145,0.598,0.207,1.238,0.207,1.9c0,0.657-0.054,1.354-0.207,2.012v4.74h0.013v2.03h5.735
	v-24.12h-5.748V73.773z"/>
<path d="M79.226,84.977c0-3.875-2.45-5.274-5.497-5.705v5.201c0.005,0.057,0.023,0.104,0.023,0.168c0,0.133-0.006,0.252-0.023,0.364
	V95.53c0.02-0.019,0.038-0.039,0.059-0.056c0.068,0.58,0.135,1.117,0.338,1.66H79.9c-0.675-1.385-0.675-3.008-0.675-4.494
	L79.226,84.977L79.226,84.977z"/>
<path d="M70.171,94.093c-1.277,0-2.398-0.577-2.398-1.987c0-1.388,1.084-1.935,2.366-2.23c0.251-0.066,0.517-0.129,0.777-0.184
	v-3.215c-3.901,0.563-8.883,0.748-8.883,5.856c0,3.614,2.63,5.306,5.975,5.306c0.979,0,1.966-0.136,2.908-0.438v-3.168
	C70.675,94.066,70.444,94.093,70.171,94.093"/>
<path d="M65.477,80.314c-0.381,0.22-0.727,0.481-1.048,0.772v-1.688c-0.439-0.099-0.911-0.131-1.347-0.131
	c-0.922,0-1.777,0.166-2.526,0.489v4.82c0.514-0.179,1.079-0.279,1.678-0.279h6.099c0.424-0.979,1.314-1.461,2.583-1.478v-3.719
	C68.965,79.113,66.998,79.458,65.477,80.314"/>
<path d="M57.742,79.607h-5.575v9.455c-0.204-2.47-1.728-4.445-4.104-5.137c1.885-0.943,3.168-2.701,3.168-4.865
	c0-5.031-4.55-6.111-8.716-6.047h-2.179v4.867h2.043c1.324,0,2.574,0.575,2.574,2.327c0,1.726-1.485,2.304-2.574,2.304h-2.043v4.053
	h2.215c1.891,0,3.379,0.707,3.379,2.832c0,1.998-1.378,2.709-3.379,2.709h-2.215v5.029h2.486c4.891,0,8.926-1.576,9.345-6.609v6.609
	h5.575V88.45V82.68V79.607z"/>
<polygon points="37.524,86.563 37.524,82.511 37.524,77.88 37.524,73.014 31.238,73.014 31.238,97.136 37.524,97.136 37.524,92.105 
	"/>
<rect x="128.053" y="82.982" width="6.126" height="4.862"/>
<path d="M159.381,93.316c-0.578-0.438-0.955-1.084-0.955-1.961h-5.108v-6.031c0.453,3.359,3.635,3.922,6.673,4.566v-4.548
	c-0.6-0.307-0.986-0.694-0.986-1.215c0-0.647,0.438-0.978,0.986-1.146V79.15c-2.965,0.244-6.213,1.412-6.673,4.543v-4.086h-5.735
	v9.387v5.738v2.401h5.735v-3.776c0.956,2.799,3.703,3.934,6.673,4.203v-3.912C159.772,93.557,159.556,93.455,159.381,93.316"/>
<path d="M205.047,79.1c-0.877,0-1.772,0.205-2.59,0.563v4.19c0.102-0.008,0.188-0.026,0.29-0.026c3.146,0,2.873,2.432,2.873,4.825
	v8.481h5.747V85.887C211.368,83.359,210.891,79.1,205.047,79.1"/>
<path d="M199.653,79.607H193.9v7.461c-0.522-4.152-3.5-7.279-7.722-7.863v4.609c1.545,0.776,2.077,2.809,2.077,4.574
	c0,1.758-0.532,3.774-2.077,4.539v4.604c4.222-0.58,7.2-3.687,7.722-7.824v7.427h5.752v-9.56v-5.574L199.653,79.607L199.653,79.607z
	"/>
<path d="M181.265,88.389c0-1.791,0.523-3.859,2.1-4.604v-4.591c-4.284,0.568-7.294,3.769-7.771,7.994v-7.582h-5.745v10.955
	c-0.297-1.446-1.427-3.313-4.359-3.901c-0.824-0.179-1.774-0.332-2.687-0.509v4.416c0.745,0.263,1.397,0.681,1.397,1.498
	c0,0.884-0.64,1.39-1.397,1.648v3.863c3.263-0.277,6.501-1.705,7.046-5.135v4.69h5.745V89.58c0.476,4.225,3.486,7.402,7.77,7.965
	V92.96C181.788,92.21,181.265,90.167,181.265,88.389"/>
<rect x="169.85" y="73.014" width="5.744" height="4.395"/>
<path fill="#FF3907" d="M57.813,82.677h-0.071v5.771c0-1.875,1.146-3.304,2.814-3.873v-4.82
	C59.3,80.296,58.338,81.277,57.813,82.677"/>
<path fill="#FF3907" d="M71.05,79.098c-0.044,0-0.089,0.002-0.134,0.002v3.717c0.028,0,0.045-0.008,0.06-0.008
	c1.136,0,2.617,0.469,2.753,1.659v-5.2C72.863,79.145,71.964,79.098,71.05,79.098"/>
<path fill="#FF3907" d="M72.23,86.255c-0.416,0.086-0.855,0.147-1.315,0.22v3.215c1.041-0.215,2.121-0.361,2.771-0.771
	c0.115,3.265-0.625,4.832-2.771,5.112v3.166c1.056-0.331,2.024-0.868,2.813-1.672V85.003C73.612,85.796,73.086,86.076,72.23,86.255"
	/>
<rect x="37.523" y="73.01" fill="#FF3907" width="2.812" height="4.866"/>
<rect x="37.525" y="92.102" fill="#FF3907" width="2.812" height="5.029"/>
<rect x="37.525" y="82.507" fill="#FF3907" width="2.812" height="4.054"/>
<rect x="125.241" y="82.98" fill="#FF3907" width="2.812" height="4.861"/>
<rect x="125.241" y="73.01" fill="#FF3907" width="2.812" height="5.038"/>
<path fill="#FF3907" d="M144.769,92.882v4.22c1.116-0.498,2.101-1.308,2.739-2.369h0.075v-5.74
	C147.583,91.835,145.993,92.746,144.769,92.882"/>
<path fill="#FF3907" d="M199.709,82h-0.057v5.575c0-1.834,0.863-3.554,2.805-3.726v-4.187C201.32,80.157,200.318,80.955,199.709,82"
	/>
<path fill="#FF3907" d="M184.741,83.484c0.561,0,1.03,0.123,1.438,0.33v-4.613c-0.464-0.064-0.943-0.104-1.438-0.104
	c-0.481,0-0.926,0.036-1.376,0.096v4.586C183.759,83.591,184.209,83.484,184.741,83.484"/>
<path fill="#FF3907" d="M184.741,93.246c-0.532,0-0.982-0.104-1.376-0.289v4.584c0.45,0.059,0.895,0.094,1.376,0.094
	c0.495,0,0.974-0.039,1.438-0.104v-4.607C185.771,93.126,185.302,93.246,184.741,93.246"/>
<rect x="169.85" y="77.404" fill="#FF3907" width="5.744" height="2.199"/>
<path fill="#FF3907" d="M85.973,82h-0.057v5.575c0-1.834,0.869-3.554,2.818-3.726v-4.187C87.588,80.157,86.58,80.955,85.973,82"/>
<path fill="#FF3907" d="M110.047,86.445v-4.952h-0.063c-0.733-0.983-1.644-1.667-2.74-2.048v4.087
	C108.818,83.706,109.692,84.891,110.047,86.445"/>
<path fill="#FF3907" d="M107.245,93.227v4.121c1.107-0.386,1.992-1.136,2.749-2.248h0.054v-4.74
	C109.729,91.814,108.935,93.057,107.245,93.227"/>
<path fill="#FF3907" d="M161.468,82.809c0.492,0,0.947,0.071,1.335,0.209v-3.855c-0.511-0.049-1.028-0.064-1.538-0.064
	c-0.412,0-0.841,0.017-1.274,0.049v3.836C160.474,82.837,161.032,82.809,161.468,82.809"/>
<path fill="#FF3907" d="M161.5,93.925c-0.537,0-1.055-0.104-1.51-0.28v3.916c0.514,0.055,1.03,0.075,1.544,0.075
	c0.419,0,0.846-0.021,1.268-0.059V93.71C162.372,93.859,161.913,93.925,161.5,93.925"/>
<path fill="#FF3907" d="M161.4,90.201c0.4,0.1,0.918,0.199,1.403,0.367v-4.416c-1.076-0.213-2.1-0.455-2.812-0.813v4.548
	C160.474,89.986,160.945,90.09,161.4,90.201"/>
<rect x="20.58" y="19" fill="none" stroke="#000000" stroke-width="2.781" stroke-miterlimit="10" width="39.424" height="39.424"/>
<rect x="60.002" y="19" fill="none" stroke="#000000" stroke-width="2.781" stroke-miterlimit="10" width="39.424" height="39.424"/>
<rect x="99.427" y="19" fill="none" stroke="#000000" stroke-width="2.781" stroke-miterlimit="10" width="39.424" height="39.424"/>
<rect x="139.036" y="19" fill="none" stroke="#000000" stroke-width="2.781" stroke-miterlimit="10" width="39.424" height="39.424"/>
<rect x="178.458" y="19" fill="none" stroke="#000000" stroke-width="2.781" stroke-miterlimit="10" width="39.425" height="39.424"/>
<rect x="217.883" y="19" fill="none" stroke="#000000" stroke-width="2.781" stroke-miterlimit="10" width="39.424" height="39.424"/>
<rect x="257.305" y="19" fill="none" stroke="#000000" stroke-width="2.781" stroke-miterlimit="10" width="39.424" height="39.424"/>
<rect x="296.729" y="19" fill="none" stroke="#000000" stroke-width="2.781" stroke-miterlimit="10" width="39.426" height="39.424"/>
<rect x="336.154" y="19" fill="none" stroke="#000000" stroke-width="2.781" stroke-miterlimit="10" width="39.424" height="39.424"/>
<text transform="matrix(1 0 0 1 29.2959 50.8691)" fill="#FF3907" font-family="'ArialMT'" font-size="35.1334">L</text>
<text transform="matrix(1 0 0 1 66.6074 50.7285)" fill="#FF3907" font-family="'ArialMT'" font-size="35.1334">A</text>
<text transform="matrix(1 0 0 1 107.2217 50.6582)" fill="#FF3907" font-family="'ArialMT'" font-size="35.1334">B</text>
<text transform="matrix(1 0 0 1 146.3252 50.7285)" fill="#FF3907" font-family="'ArialMT'" font-size="35.1334">O</text>
<text transform="matrix(1 0 0 1 304.0039 50.6582)" fill="#FF3907" font-family="'ArialMT'" font-size="35.1334">O</text>
<text transform="matrix(1 0 0 1 186.834 50.7285)" fill="#FF3907" font-family="'ArialMT'" font-size="35.1334">R</text>
<text transform="matrix(1 0 0 1 343.4941 50.7285)" fill="#FF3907" font-family="'ArialMT'" font-size="35.1334">R</text>
<text transform="matrix(1 0 0 1 225.1289 50.7285)" fill="#FF3907" font-family="'ArialMT'" font-size="35.1334">A</text>
<text transform="matrix(1 0 0 1 266.3057 50.8691)" fill="#FF3907" font-family="'ArialMT'" font-size="35.1334">T</text>
</svg>
