<?xml version="1.0" encoding="utf-8"?>
<!-- Generator: Adobe Illustrator 16.0.0, SVG Export Plug-In . SVG Version: 6.00 Build 0)  -->
<!DOCTYPE svg PUBLIC "-//W3C//DTD SVG 1.1//EN" "http://www.w3.org/Graphics/SVG/1.1/DTD/svg11.dtd">
<svg version="1.1" id="Layer_2" xmlns="http://www.w3.org/2000/svg" xmlns:xlink="http://www.w3.org/1999/xlink" x="0px" y="0px"
	 width="360.421px" height="81.333px" viewBox="19.579 17.167 360.421 81.333"
	 enable-background="new 19.579 17.167 360.421 81.333" xml:space="preserve">
<rect x="132.364" y="67.856" width="8.213" height="5.255"/>
<path d="M169.114,78.534c0.496,0.314,0.782,0.81,0.782,1.588h5.521c-0.182-4.125-3.36-5.545-6.814-5.846v4.018
	C168.787,78.358,168.966,78.439,169.114,78.534"/>
<path d="M110.245,88.956c-2.745,0-3.659-2.777-3.659-5.279c0-2.326,0.914-4.897,3.659-4.897c0.146,0,0.279,0.04,0.42,0.05v-4.26
	c-0.709-0.244-1.496-0.365-2.358-0.365c-4.781,0-7.303,3.843-7.669,8.174v-1.095c0-2.638-0.485-7.079-6.577-7.079
	c-0.922,0-1.841,0.214-2.701,0.588v4.371c0.095-0.007,0.195-0.028,0.306-0.028c3.279,0,2.989,2.536,2.989,5.033v8.846h5.983v-8.358
	c0.361,4.688,2.838,8.883,8.128,8.883c0.702,0,1.327-0.106,1.899-0.304V88.94C110.528,88.948,110.391,88.956,110.245,88.956"/>
<path d="M149.453,88.607c-1.905,0-2.962-0.84-2.962-3.281V74.734h-5.985V85.72c0,4.787,1.511,7.818,6.761,7.818
	c0.855,0,1.725-0.201,2.529-0.556v-4.398C149.682,88.587,149.552,88.607,149.453,88.607"/>
<polygon points="88.409,77.23 88.409,74.734 82.437,74.734 82.437,93.013 88.422,93.013 88.422,83.042 88.422,77.23 "/>
<polygon points="129.432,73.111 129.432,67.858 122.88,67.858 122.88,93.014 129.432,93.014 129.432,83.323 129.432,78.253 "/>
<path d="M113.588,68.65v8.054v5.165c0.151,0.624,0.216,1.292,0.216,1.983c0,0.688-0.056,1.412-0.216,2.098v4.943h0.012v2.12h5.983
	V67.858h-5.995V68.65z"/>
<path d="M81.446,80.333c0-4.042-2.556-5.5-5.732-5.948v5.422c0.006,0.06,0.024,0.11,0.024,0.177c0,0.139-0.006,0.262-0.024,0.381
	v10.975c0.02-0.019,0.039-0.039,0.061-0.057c0.071,0.605,0.141,1.164,0.354,1.731h6.022c-0.705-1.446-0.705-3.137-0.705-4.686
	V80.333z"/>
<path d="M72.003,89.841c-1.332,0-2.501-0.604-2.501-2.073c0-1.446,1.131-2.017,2.467-2.326c0.262-0.069,0.539-0.135,0.811-0.19
	v-3.353c-4.068,0.587-9.263,0.778-9.263,6.106c0,3.77,2.743,5.533,6.231,5.533c1.021,0,2.05-0.141,3.032-0.456v-3.305
	C72.528,89.811,72.288,89.841,72.003,89.841"/>
<path d="M67.107,75.472c-0.397,0.228-0.758,0.502-1.093,0.805v-1.758c-0.458-0.104-0.95-0.139-1.404-0.139
	c-0.961,0-1.853,0.172-2.633,0.51v5.028c0.535-0.185,1.125-0.293,1.749-0.293h6.361c0.441-1.022,1.37-1.522,2.693-1.538v-3.879
	C70.746,74.219,68.694,74.579,67.107,75.472"/>
<path d="M59.042,74.734h-5.813v9.86c-0.212-2.574-1.802-4.637-4.281-5.357c1.967-0.984,3.305-2.817,3.305-5.075
	c0-5.244-4.745-6.372-9.089-6.304H40.89v5.075h2.131c1.38,0,2.684,0.602,2.684,2.429c0,1.797-1.549,2.4-2.684,2.4H40.89v4.226h2.31
	c1.973,0,3.523,0.738,3.523,2.953c0,2.083-1.436,2.826-3.523,2.826h-2.31v5.246h2.593c5.1,0,9.309-1.646,9.745-6.894v6.894h5.813
	v-9.058v-6.017V74.734z"/>
<polygon points="37.958,81.988 37.958,77.763 37.958,72.933 37.958,67.856 31.403,67.856 31.403,93.013 37.958,93.013 
	37.958,87.768 "/>
<rect x="132.365" y="78.253" width="6.389" height="5.07"/>
<path d="M165.036,89.03c-0.604-0.457-0.997-1.131-0.997-2.045h-5.327v-6.289c0.472,3.504,3.791,4.09,6.959,4.762v-4.741
	c-0.626-0.321-1.029-0.726-1.029-1.267c0-0.678,0.458-1.021,1.029-1.197v-3.996c-3.092,0.255-6.479,1.473-6.959,4.738v-4.261h-5.979
	v9.788v5.984v2.507h5.979v-3.94c0.998,2.918,3.861,4.103,6.959,4.383v-4.08C165.443,89.281,165.217,89.175,165.036,89.03"/>
<path d="M212.656,74.204c-0.913,0-1.847,0.214-2.7,0.59v4.369c0.106-0.007,0.197-0.028,0.305-0.028c3.278,0,2.995,2.536,2.995,5.032
	v8.846h5.992V81.283C219.248,78.646,218.752,74.204,212.656,74.204"/>
<path d="M207.031,74.734h-5.998v7.78c-0.543-4.33-3.649-7.591-8.052-8.199v4.807c1.61,0.81,2.166,2.927,2.166,4.77
	c0,1.833-0.556,3.936-2.166,4.734v4.801c4.402-0.604,7.509-3.842,8.052-8.157v7.744h5.998v-9.97v-5.814V74.734z"/>
<path d="M187.855,83.892c0-1.867,0.545-4.023,2.191-4.803v-4.786c-4.468,0.595-7.606,3.931-8.104,8.339v-7.908h-5.989v11.425
	c-0.312-1.511-1.489-3.456-4.546-4.07c-0.861-0.185-1.851-0.346-2.803-0.529v4.606c0.776,0.272,1.457,0.708,1.457,1.563
	c0,0.919-0.667,1.447-1.457,1.718v4.03c3.402-0.289,6.778-1.779,7.349-5.356v4.894h5.989v-7.88c0.498,4.405,3.637,7.721,8.104,8.308
	v-4.78C188.4,87.878,187.855,85.747,187.855,83.892"/>
<rect x="175.952" y="67.856" width="5.99" height="4.583"/>
<path fill="#FF3907" d="M59.115,77.936h-0.073v6.02c0-1.956,1.194-3.444,2.935-4.04v-5.026
	C60.667,75.452,59.663,76.476,59.115,77.936"/>
<path fill="#FF3907" d="M72.92,74.202c-0.047,0-0.093,0.003-0.14,0.003v3.876c0.029,0,0.046-0.008,0.063-0.008
	c1.184,0,2.728,0.488,2.87,1.729v-5.423C74.811,74.253,73.873,74.202,72.92,74.202"/>
<path fill="#FF3907" d="M74.151,81.666c-0.433,0.091-0.891,0.153-1.371,0.228v3.354c1.086-0.225,2.211-0.375,2.89-0.801
	c0.12,3.402-0.651,5.037-2.89,5.33v3.301c1.102-0.344,2.11-0.903,2.934-1.741V80.36C75.592,81.188,75.044,81.479,74.151,81.666"/>
<rect x="37.958" y="67.854" fill="#FF3907" width="2.932" height="5.075"/>
<rect x="37.958" y="87.765" fill="#FF3907" width="2.932" height="5.244"/>
<rect x="37.958" y="77.758" fill="#FF3907" width="2.932" height="4.226"/>
<rect x="129.432" y="78.251" fill="#FF3907" width="2.933" height="5.071"/>
<rect x="129.432" y="67.854" fill="#FF3907" width="2.933" height="5.255"/>
<path fill="#FF3907" d="M149.797,88.577v4.4c1.164-0.521,2.191-1.361,2.856-2.471h0.08V84.52
	C152.732,87.487,151.075,88.436,149.797,88.577"/>
<path fill="#FF3907" d="M207.093,77.229h-0.062v5.815c0-1.912,0.901-3.708,2.925-3.886v-4.364
	C208.771,75.308,207.726,76.139,207.093,77.229"/>
<path fill="#FF3907" d="M191.481,78.776c0.585,0,1.075,0.129,1.501,0.346v-4.812c-0.486-0.068-0.985-0.108-1.501-0.108
	c-0.502,0-0.966,0.039-1.436,0.102v4.781C190.457,78.89,190.927,78.776,191.481,78.776"/>
<path fill="#FF3907" d="M191.481,88.956c-0.555,0-1.024-0.107-1.436-0.301v4.781c0.47,0.061,0.934,0.098,1.436,0.098
	c0.516,0,1.015-0.043,1.501-0.111v-4.804C192.557,88.833,192.066,88.956,191.481,88.956"/>
<rect x="175.952" y="72.437" fill="#FF3907" width="5.99" height="2.291"/>
<path fill="#FF3907" d="M88.482,77.229h-0.061v5.815c0-1.912,0.907-3.708,2.939-3.886v-4.364
	C90.165,75.308,89.115,76.139,88.482,77.229"/>
<path fill="#FF3907" d="M113.588,81.865V76.7h-0.066c-0.765-1.024-1.714-1.737-2.857-2.136v4.262
	C112.307,79.008,113.219,80.243,113.588,81.865"/>
<path fill="#FF3907" d="M110.665,88.936v4.298c1.154-0.401,2.077-1.184,2.867-2.345h0.056v-4.942
	C113.256,87.466,112.428,88.761,110.665,88.936"/>
<path fill="#FF3907" d="M167.212,78.073c0.513,0,0.987,0.072,1.392,0.217v-4.021c-0.533-0.05-1.071-0.066-1.603-0.066
	c-0.429,0-0.878,0.017-1.329,0.052v3.999C166.174,78.102,166.756,78.073,167.212,78.073"/>
<path fill="#FF3907" d="M167.246,89.665c-0.561,0-1.1-0.107-1.576-0.294v4.085c0.537,0.059,1.076,0.078,1.611,0.078
	c0.438,0,0.882-0.02,1.324-0.059v-4.034C168.154,89.598,167.675,89.665,167.246,89.665"/>
<path fill="#FF3907" d="M167.141,85.781c0.417,0.104,0.957,0.207,1.464,0.384v-4.606c-1.122-0.222-2.19-0.476-2.934-0.847v4.743
	C166.174,85.558,166.666,85.667,167.141,85.781"/>
<g>
	<path d="M61.284,59.199H19.579V17.494h41.705V59.199z M21.968,56.811h36.927V19.883H21.968V56.811z"/>
</g>
<g>
	<path d="M100.6,59.199H58.895V17.494H100.6V59.199z M61.284,56.811h36.928V19.883H61.284V56.811z"/>
</g>
<g>
	<path d="M139.915,59.199H98.211V17.494h41.704V59.199z M100.6,56.811h36.927V19.883H100.6V56.811z"/>
</g>
<g>
	<path d="M179.417,59.199h-41.706V17.494h41.706V59.199z M140.1,56.811h36.928V19.883H140.1V56.811z"/>
</g>
<g>
	<path d="M218.733,59.199h-41.705V17.494h41.705V59.199z M179.417,56.811h36.928V19.883h-36.928V56.811z"/>
</g>
<g>
	<path d="M258.048,59.199h-41.703V17.494h41.703V59.199z M218.733,56.811h36.926V19.883h-36.926V56.811z"/>
</g>
<g>
	<path d="M297.365,59.199h-41.706V17.494h41.706V59.199z M258.048,56.811h36.929V19.883h-36.929V56.811z"/>
</g>
<g>
	<path d="M336.681,59.199h-41.705V17.494h41.705V59.199z M297.364,56.811h36.928V19.883h-36.928V56.811z"/>
</g>
<g>
	<path d="M375.997,59.199h-41.705V17.494h41.705V59.199z M336.681,56.811h36.928V19.883h-36.928V56.811z"/>
</g>
<g>
	<path fill="#FF3907" d="M30.656,50.474V47.04c1.227-0.175,2.067-0.245,2.663-0.315V29.698c-0.946-0.105-1.857-0.175-2.733-0.315
		V25.95h10.896v3.433c-1.051,0.175-2.172,0.315-3.363,0.351V46.62h8.408l0.561-3.819h3.223v7.673H30.656z"/>
</g>
<g>
	<path fill="#FF3907" d="M90.85,46.584c1.086,0.035,2.102,0.176,3.118,0.315v3.434H83.072v-3.434c0.806-0.14,1.577-0.21,2.382-0.28
		l-1.156-3.503h-8.093l-0.946,3.468c0.806,0.105,1.051,0.176,1.892,0.315v3.434h-9.774v-3.434c0.981-0.14,1.962-0.28,2.978-0.315
		l5.641-17.062c-0.631-0.07-1.401-0.14-2.593-0.28v-3.433h10.44L90.85,46.584z M80.129,29.838l-2.978,9.179h6.096l-3.013-9.179
		H80.129z"/>
</g>
<g>
	<path fill="#FF3907" d="M128.83,32.851c0,2.522-1.051,4.099-3.013,4.835c2.172,0.561,3.468,2.277,3.468,5.36v0.525
		c0,5.115-2.347,6.656-8.022,6.691H108.37v-3.434c1.191-0.175,2.067-0.245,2.732-0.315V29.487c-0.666-0.07-1.611-0.14-2.803-0.315
		v-3.433h12.437c5.781,0,8.093,2.032,8.093,6.762V32.851z M120.562,35.969c2.522,0,3.574-0.631,3.574-2.732v-0.491
		c0-2.137-0.63-3.048-3.258-3.048h-4.939v6.271H120.562z M124.38,42.345c0-2.102-1.331-2.697-3.819-2.697h-4.624v6.656h4.624
		c2.558,0,3.819-1.121,3.819-3.398V42.345z"/>
</g>
<g>
	<path fill="#FF3907" d="M157.036,50.753c-6.061,0-9.144-3.503-9.179-9.354v-6.446c0-5.991,3.048-9.529,9.179-9.529h3.258
		c5.991,0,9.004,3.573,9.004,9.529v6.411c0,5.886-3.083,9.389-9.004,9.389H157.036z M159.804,46.444c3.118,0,4.66-1.401,4.694-4.765
		v-7.147c0-3.398-1.542-4.835-4.694-4.835h-2.488c-3.153,0-4.659,1.717-4.659,4.835v7.147c0,3.363,1.506,4.765,4.659,4.765H159.804z
		"/>
</g>
<g>
	<path fill="#FF3907" d="M314.284,50.683c-6.061,0-9.144-3.503-9.179-9.354v-6.446c0-5.991,3.048-9.529,9.179-9.529h3.259
		c5.99,0,9.004,3.573,9.004,9.529v6.411c0,5.886-3.084,9.389-9.004,9.389H314.284z M317.052,46.374c3.118,0,4.66-1.401,4.695-4.765
		v-7.147c0-3.398-1.542-4.835-4.695-4.835h-2.487c-3.152,0-4.659,1.717-4.659,4.835v7.147c0,3.363,1.507,4.765,4.659,4.765H317.052z
		"/>
</g>
<g>
	<path fill="#FF3907" d="M200.588,25.809c5.57,0,8.303,2.102,8.303,7.042v1.822c0,3.293-1.611,5.01-3.924,6.306
		c0.807,1.261,2.067,3.433,2.979,5.605c0.631,0.105,1.506,0.176,2.592,0.315v3.434h-7.777v-3.714
		c-0.806-2.347-1.437-3.783-2.102-4.835h-5.325v4.94c0.7,0.035,1.401,0.104,2.137,0.175v3.434h-9.704v-3.434
		c0.945-0.14,1.821-0.245,2.732-0.315V29.558c-0.666-0.07-1.611-0.14-2.803-0.315v-3.433H200.588z M200.553,37.545
		c2.487,0,3.784-1.191,3.784-3.153v-1.227c0-2.172-1.262-3.398-3.784-3.398h-5.22v7.777H200.553z"/>
</g>
<g>
	<path fill="#FF3907" d="M356.82,25.809c5.57,0,8.303,2.102,8.303,7.042v1.822c0,3.293-1.611,5.01-3.924,6.306
		c0.807,1.261,2.067,3.433,2.979,5.605c0.631,0.105,1.506,0.176,2.592,0.315v3.434h-7.777v-3.714
		c-0.806-2.347-1.437-3.783-2.102-4.835h-5.325v4.94c0.7,0.035,1.401,0.104,2.137,0.175v3.434h-9.704v-3.434
		c0.945-0.14,1.821-0.245,2.732-0.315V29.558c-0.666-0.07-1.611-0.14-2.803-0.315v-3.433H356.82z M356.785,37.545
		c2.487,0,3.784-1.191,3.784-3.153v-1.227c0-2.172-1.262-3.398-3.784-3.398h-5.22v7.777H356.785z"/>
</g>
<g>
	<path fill="#FF3907" d="M248.938,46.584c1.086,0.035,2.102,0.176,3.118,0.315v3.434H241.16v-3.434
		c0.807-0.14,1.577-0.21,2.383-0.28l-1.156-3.503h-8.093l-0.946,3.468c0.807,0.105,1.052,0.176,1.893,0.315v3.434h-9.775v-3.434
		c0.981-0.14,1.963-0.28,2.979-0.315l5.641-17.062c-0.631-0.07-1.401-0.14-2.593-0.28v-3.433h10.44L248.938,46.584z M238.218,29.838
		l-2.978,9.179h6.096l-3.013-9.179H238.218z"/>
</g>
<g>
	<path fill="#FF3907" d="M285.8,33.412l-0.315-3.503h-5.115v16.816c0.911,0.07,2.067,0.176,2.943,0.315v3.434h-10.686V47.04
		c0.876-0.14,2.031-0.21,2.907-0.315V29.909h-5.149l-0.315,3.503h-3.328V25.95h22.387v7.462H285.8z"/>
</g>
</svg>
