<?xml version="1.0" encoding="utf-8"?>
<!-- Generator: Adobe Illustrator 16.0.0, SVG Export Plug-In . SVG Version: 6.00 Build 0)  -->
<!DOCTYPE svg PUBLIC "-//W3C//DTD SVG 1.1//EN" "http://www.w3.org/Graphics/SVG/1.1/DTD/svg11.dtd">
<svg version="1.1" id="Layer_1" xmlns="http://www.w3.org/2000/svg" xmlns:xlink="http://www.w3.org/1999/xlink" x="0px" y="0px"
	 width="41.288px" height="82.576px" viewBox="0 0 41.288 82.576" enable-background="new 0 0 41.288 82.576" xml:space="preserve">
<path fill="#FF3907" d="M25.771,15.185c-2.789,0-3.963,2.171-3.963,2.171v-1.77h-3.904v13.144h3.904V21.83
	c0-1.849,0.851-2.949,2.48-2.949c1.496,0,2.216,1.057,2.216,2.949v6.899h4.051v-8.323C30.555,16.887,28.559,15.185,25.771,15.185
	 M11.23,28.729h4.07V15.586h-4.07V28.729z M13.246,9.014c-1.329,0-2.407,1.086-2.407,2.426s1.078,2.424,2.407,2.424
	s2.407-1.084,2.407-2.424S14.575,9.014,13.246,9.014"/>
<path fill="#FF3907" d="M41.287,41.289H0V0h41.287V41.289z M3,38.289h35.287V3H3V38.289z"/>
<path fill="#04CB64" d="M25.771,56.474c-2.789,0-3.963,2.171-3.963,2.171v-1.77h-3.904v13.144h3.904v-6.899
	c0-1.849,0.851-2.949,2.48-2.949c1.496,0,2.216,1.057,2.216,2.949v6.899h4.051v-8.323C30.555,58.176,28.559,56.474,25.771,56.474
	 M11.23,70.019h4.07V56.875h-4.07V70.019z M13.246,50.303c-1.329,0-2.407,1.086-2.407,2.426s1.078,2.424,2.407,2.424
	s2.407-1.084,2.407-2.424S14.575,50.303,13.246,50.303"/>
<path fill="#04CB64" d="M41.287,82.578H0V41.289h41.287V82.578z M3,79.578h35.287V44.289H3V79.578z"/>
</svg>
